<svg xmlns="http://www.w3.org/2000/svg" xmlns:xlink="http://www.w3.org/1999/xlink" version="1.1" x="0px" y="0px" viewBox="0 0 230.435 212.86249999999998" enable-background="new 0 0 230.435 170.29" xml:space="preserve"><path fill="#f1f1f1" d="M223.578,163.678H5.924V16.709c0-1.381,1.119-2.5,2.5-2.5s2.5,1.119,2.5,2.5v141.969h212.654  c1.381,0,2.5,1.119,2.5,2.5S224.958,163.678,223.578,163.678z"/><path fill="#f1f1f1" d="M203.857,21.157c-3.773,0-6.844,3.07-6.844,6.844c0,1.439,0.449,2.775,1.211,3.879l-35.555,42.979  c-0.838-0.368-1.764-0.576-2.738-0.576c-1.799,0-3.434,0.704-4.658,1.844L122.63,56.222c0.139-0.544,0.221-1.109,0.221-1.695  c0-3.773-3.07-6.844-6.843-6.844s-6.843,3.07-6.843,6.844c0,1.663,0.598,3.189,1.588,4.376l-36.762,56.17  c-0.606-0.176-1.246-0.275-1.908-0.275c-1.527,0-2.934,0.508-4.074,1.357L34.565,91.508c0.278-0.744,0.438-1.547,0.438-2.387  c0-3.773-3.07-6.844-6.843-6.844s-6.843,3.07-6.843,6.844c0,3.774,3.07,6.842,6.843,6.842c1.481,0,2.85-0.477,3.971-1.279  l33.503,24.689c-0.251,0.711-0.395,1.471-0.395,2.268c0,3.773,3.07,6.842,6.843,6.842s6.843-3.068,6.843-6.842  c0-1.664-0.598-3.189-1.588-4.377L114.1,61.093c0.606,0.177,1.245,0.276,1.908,0.276c1.742,0,3.328-0.659,4.539-1.734l32.723,19.955  c-0.115,0.495-0.182,1.008-0.182,1.537c0,3.773,3.07,6.843,6.844,6.843s6.842-3.069,6.842-6.843c0-1.346-0.395-2.599-1.068-3.658  l35.654-43.104c0.775,0.305,1.615,0.479,2.498,0.479c3.773,0,6.842-3.069,6.842-6.843S207.63,21.157,203.857,21.157z M28.16,91.963  c-1.568,0-2.843-1.275-2.843-2.842c0-1.568,1.275-2.844,2.843-2.844c1.479,0,2.685,1.14,2.817,2.586  c0.008,0.087,0.026,0.17,0.026,0.258c0,1.483-1.146,2.69-2.596,2.817C28.324,91.946,28.245,91.963,28.16,91.963z M74.927,121.641  c0,1.373-0.979,2.521-2.276,2.785c-0.045,0.01-0.094,0.008-0.14,0.014c-0.141,0.021-0.281,0.043-0.428,0.043  c-1.424,0-2.596-1.055-2.801-2.422c-0.021-0.139-0.042-0.277-0.042-0.42c0-1.568,1.275-2.844,2.843-2.844  c1.364,0,2.505,0.965,2.779,2.25C74.903,121.239,74.927,121.436,74.927,121.641z M116.621,57.241l-0.046,0.07  c-0.183,0.037-0.372,0.058-0.567,0.058c-1.364,0-2.504-0.967-2.778-2.25c-0.041-0.191-0.064-0.39-0.064-0.593  c0-1.568,1.275-2.844,2.843-2.844c1.339,0,2.458,0.934,2.757,2.183c0.053,0.213,0.086,0.433,0.086,0.661  c0,1.334-0.926,2.448-2.168,2.753L116.621,57.241z M162.773,81.127c0,1.567-1.273,2.843-2.842,2.843  c-1.256,0-2.313-0.824-2.688-1.956c-0.094-0.281-0.156-0.575-0.156-0.887c0-1.262,0.832-2.321,1.971-2.692  c0.246-0.08,0.502-0.131,0.771-0.141c0.035-0.002,0.066-0.011,0.102-0.011c1.533,0,2.775,1.221,2.832,2.74  C162.765,81.059,162.773,81.092,162.773,81.127z M204.31,30.798c-0.148,0.024-0.299,0.046-0.453,0.046  c-1.414,0-2.58-1.038-2.799-2.39c-0.023-0.148-0.045-0.298-0.045-0.453c0-1.568,1.275-2.844,2.844-2.844  c1.566,0,2.842,1.275,2.842,2.844C206.699,29.413,205.662,30.579,204.31,30.798z"/></svg>