<svg xmlns="http://www.w3.org/2000/svg" xmlns:xlink="http://www.w3.org/1999/xlink" version="1.1" x="0px" y="0px" viewBox="0 0 64 110" style="enable-background:new 0 0 64 88;" xml:space="preserve"><path fill="#f1f1f1" d="M63,0H1C0.448,0,0,0.448,0,1v86c0,0.552,0.448,1,1,1h62c0.552,0,1-0.448,1-1V1C64,0.448,63.552,0,63,0z M62,86H2V2h60V86z"/><path fill="#f1f1f1" d="M8,32.5h48c0.276,0,0.5-0.224,0.5-0.5V20c0-0.276-0.224-0.5-0.5-0.5H8c-0.276,0-0.5,0.224-0.5,0.5v12  C7.5,32.276,7.724,32.5,8,32.5z M8.5,20.5h47v11h-47V20.5z"/><rect fill="#f1f1f1" x="20" y="23.5" width="20" height="1"/><rect fill="#f1f1f1" x="20" y="27.5" width="28" height="1"/><rect fill="#f1f1f1" x="8" y="15" width="16" height="2"/><path fill="#f1f1f1" d="M8,56.5h48c0.276,0,0.5-0.224,0.5-0.5V40c0-0.276-0.224-0.5-0.5-0.5H8c-0.276,0-0.5,0.224-0.5,0.5v16  C7.5,56.276,7.724,56.5,8,56.5z M8.5,40.5h47v15h-47V40.5z"/><rect fill="#f1f1f1" x="20" y="43.5" width="32" height="1"/><rect fill="#f1f1f1" x="20" y="47.5" width="28" height="1"/><rect fill="#f1f1f1" x="20" y="51.5" width="28" height="1"/><rect fill="#f1f1f1" x="8" y="35" width="16" height="2"/><rect fill="#f1f1f1" x="8" y="7.5" width="20" height="1"/><rect fill="#f1f1f1" x="40" y="7.5" width="16" height="1"/><rect fill="#f1f1f1" x="8" y="63.5" width="48" height="1"/><rect fill="#f1f1f1" x="8" y="67.5" width="48" height="1"/><rect fill="#f1f1f1" x="8" y="71.5" width="40" height="1"/><rect fill="#f1f1f1" x="8" y="75.5" width="48" height="1"/><rect fill="#f1f1f1" x="8" y="79.5" width="48" height="1"/><rect fill="#f1f1f1" x="12" y="23.5" width="4" height="1"/><rect fill="#f1f1f1" x="12" y="43.5" width="4" height="1"/><rect fill="#f1f1f1" x="12" y="47.5" width="4" height="1"/><rect fill="#f1f1f1" x="12" y="51.5" width="4" height="1"/><rect fill="#f1f1f1" x="12" y="27.5" width="4" height="1"/></svg>