<svg title="Laptop by Adrijan Karavdic from the Noun Project" xmlns="http://www.w3.org/2000/svg" xmlns:xlink="http://www.w3.org/1999/xlink" version="1.1" x="0px" y="0px" viewBox="0 0 100 125" enable-background="new 0 0 100 100" xml:space="preserve"><path fill-rule="evenodd" clip-rule="evenodd" d="M8.075,77.801h83.792V20.91c0-2.338-1.912-4.242-4.246-4.242H12.312  c-2.334,0-4.237,1.904-4.237,4.242V77.801L8.075,77.801z M46.308,17.972L46.308,17.972h7.319c0.447,0,0.816,0.374,0.816,0.817  c0,0.452-0.369,0.817-0.816,0.817h-7.319c-0.443,0-0.809-0.365-0.809-0.817C45.499,18.346,45.864,17.972,46.308,17.972  L46.308,17.972z M4.246,87.484L4.246,87.484h91.516c2.33,0,4.238-1.913,4.238-4.242v-3.868H0v3.868  C0,85.571,1.912,87.484,4.246,87.484L4.246,87.484z M34.177,80.913L34.177,80.913h31.645v2.703H34.177V80.913L34.177,80.913z   M12.551,75.141L12.551,75.141V21.023h74.828v54.117H12.551z"/></svg>