<svg xmlns="http://www.w3.org/2000/svg" xmlns:xlink="http://www.w3.org/1999/xlink" version="1.1" x="0px" y="0px" viewBox="0 -20 100 125" enable-background="new 0 0 100 100" xml:space="preserve"><path fill="#f1f1f1" d="M5.009,6.807v13.765v3.638h4.238v56.535h31.847l-8.046,8.046c-1.421,1.42-1.421,3.723,0,5.144  C33.758,94.645,34.688,95,35.62,95c0.93,0,1.861-0.355,2.572-1.065L49.875,82.25l11.684,11.684C62.269,94.645,63.2,95,64.13,95  s1.861-0.355,2.571-1.065c1.421-1.421,1.421-3.724,0-5.144l-8.046-8.046H90.89V24.21h3.854v-3.638V6.807H5.009z M87.469,14.082v6.49  H12.284v-6.49H87.469z M83.614,73.47H16.522V24.21h67.092V73.47z"/></svg>