<svg xmlns="http://www.w3.org/2000/svg" xmlns:xlink="http://www.w3.org/1999/xlink" version="1.1" x="0px" y="0px" viewBox="0 10 100 80" enable-background="new 0 0 100 100" xml:space="preserve"><g><path fill="#f1f1f1" d="M63.925,85h26.76c0-7.663-4.355-12.773-10.213-14.122c2.007-1.159,3.435-3.328,3.706-5.878H90V16H9v49h6.645   c0.277,2.598,1.755,4.796,3.821,5.938C13.733,72.373,9.5,77.444,9.5,85h26.76c0-7.664-4.355-12.773-10.213-14.122   c2.006-1.159,3.434-3.328,3.706-5.878h13.085c0.277,2.598,1.755,4.796,3.821,5.938c-5.732,1.435-9.966,6.506-9.966,14.062h26.76   c0-7.663-4.355-12.773-10.213-14.122c2.006-1.159,3.434-3.328,3.705-5.878H70.07c0.276,2.598,1.755,4.796,3.82,5.938   C68.158,72.373,63.925,77.444,63.925,85z M12,19h75v43h-3.052c-0.852-3.207-3.582-5.555-6.825-5.555   c-3.242,0-5.972,2.348-6.823,5.555H56.716c-0.852-3.207-3.582-5.555-6.825-5.555c-3.242,0-5.973,2.348-6.824,5.555H29.523   c-0.852-3.207-3.583-5.555-6.825-5.555c-3.242,0-5.973,2.348-6.824,5.555H12V19z"/><rect fill="#f1f1f1" x="18" y="25" width="43" height="2"/><rect fill="#f1f1f1" x="18" y="31" width="33" height="2"/><rect fill="#f1f1f1" x="18" y="37" width="43" height="2"/><rect fill="#f1f1f1" x="18" y="43" width="36" height="2"/><rect fill="#f1f1f1" x="18" y="49" width="43" height="2"/></g></svg>